<svg width="240" height="240.64" xmlns="http://www.w3.org/2000/svg"><path style="fill:#fefefe;stroke-width:.32" d="M.051 186.519c.028-30.756.1-55.416.161-54.8 1.375 14.031 3.963 24.806 8.756 36.469 10.766 26.19 31.248 48.35 56.632 61.27 13.205 6.72 27.918 11.025 42.706 12.493 3.571.354-3.948.42-52.066.45L0 242.44Zm128.909 55.703c17.58-1.284 36.41-7.157 51.72-16.133 15.103-8.854 29.58-22.513 39.274-37.055C254.55 137.14 243.79 67.688 195.093 28.566 166.122 5.291 127.579-3.237 91.52 5.65 42.199 17.804 5.903 59.342.515 109.8c-.394 3.69-.448-2.165-.48-51.92L0 1.799h181.547l3.547 1.806c40.132 20.437 66.438 58.314 71.754 103.314.78 6.606.786 22.75.01 28.96-2.113 16.91-6.098 30.388-13.15 44.48-12.414 24.802-31.501 44.347-56.399 57.752-2.786 1.5-4.9 2.728-4.699 2.728 1.48 0 12.56-4.43 18.404-7.358 37.968-19.02 62.939-57.476 66.286-102.082.06-.792.133 23.868.164 54.8l.056 56.24-70-.056c-38.5-.031-69.352-.104-68.56-.161zm-18.4-20.939c-44.324-4.133-80.882-37.844-88.453-81.564-1.494-8.627-1.911-19.947-1.026-27.84 2.134-19.032 9.504-36.91 21.345-51.774 3.283-4.12 11.32-12.131 15.442-15.39 43.518-34.405 106.455-27.03 140.308 16.444 18.806 24.15 25.42 55.171 18.155 85.16-8.171 33.735-34.872 61.62-68.318 71.35-11.53 3.355-25.638 4.716-37.453 3.614zm18.339-18.499c8.502-1.281 15.92-3.625 23.901-7.553 4.526-2.228 11.558-6.461 11.248-6.772-.078-.078-1.201.392-2.495 1.044-39.468 19.88-88.391 1.055-104.847-40.344-15.272-38.42 4.822-82.162 44.63-97.153 8.719-3.283 16.1-4.569 26.344-4.587 12.35-.022 21.735 2.048 32.64 7.202 4.584 2.166 4.117 1.536-1.333-1.794-12.217-7.468-25.198-11.242-39.844-11.584-14.655-.343-25.637 2.017-38.36 8.243-23.973 11.732-40.322 34.37-44.526 61.655-.775 5.028-.761 17.468.025 22.658 5.711 37.684 35.433 65.936 73.212 69.59 4.594.443 14.493.135 19.405-.605zm15.741-12.83c25.943-9.963 44.642-33.352 48.029-60.075.309-2.44.471-2.96.925-2.96.302 0 1.123-.416 1.824-.923 3.519-2.55 2.955-7.913-1.017-9.67l-1.348-.596-.218-2.646c-.522-6.346-2.984-15.375-6.05-22.187-5.833-12.958-15.776-24.52-27.881-32.422l-2.522-1.647-.713 1.18-.712 1.181 3.241 2.162c17.973 11.981 29.308 30.626 32.013 52.656l.203 1.648-1.445.7c-4.033 1.952-4.125 7.662-.159 9.891l1.354.76-.211 2.277c-.996 10.742-6.836 24.736-14.37 34.436-8.27 10.646-20.51 19.56-32.958 24.001l-3.135 1.119.204 1.117c.337 1.846.135 1.846 4.946-.002zm-13.72-7.001c5.518-1.117 10.096-2.688 15.07-5.17 2.1-1.048 2.646-1.204 3.196-.91 1.094.586 4.197.197 5.487-.687 1.408-.965 2.447-2.762 2.447-4.233 0-.918.215-1.281 1.2-2.025.66-.5 2.691-2.352 4.514-4.118 20.235-19.61 24.189-46.965 10.564-73.1-2.613-5.015-6.926-11.576-7.585-11.54-.117.006-.614.34-1.105.741l-.891.73 2.684 4.02c10.369 15.526 14.165 32.311 10.903 48.207-2.239 10.91-9.487 22.984-18.559 30.916l-2.761 2.414-1.078-.946a5.984 5.984 0 0 0-8.56.63c-1.456 1.73-1.62 3.224-.685 6.26.359 1.167-7.738 4.39-14.954 5.954-4.708 1.02-13.76 1.028-18.104.017-3.563-.83-8.346-2.713-11.423-4.497l-2.24-1.298-.723.86c-.398.473-.686 1.077-.64 1.34.123.714 8.288 4.663 11.603 5.613 6.548 1.877 14.872 2.193 21.64.822zm-3.928-12.16c10.741-2.395 21.545-8.51 27.86-15.771 11.56-13.29 16.477-31.194 12.817-46.663-4.795-20.263-19.711-36.68-37.402-41.161-1.687-.428-3.12-.931-3.184-1.12-.27-.789-2.189-2.647-3.148-3.047-2.728-1.14-6.798.09-7.728 2.334-.352.85-.63.983-3.12 1.496-3.042.626-7.705 2.032-7.92 2.387-.078.127.071.759.33 1.405l.471 1.174 1.816-.626c2.192-.756 6.523-1.882 7.24-1.882.284 0 .605.252.713.56.408 1.157 1.783 2.667 2.989 3.282 3.174 1.62 7.75-.042 8.515-3.092.154-.614.336-.712 1.033-.558 17.392 3.861 32.506 20.338 36.876 40.201.84 3.817 1.156 11.346.63 15.01-2.069 14.409-10.145 28.095-20.772 35.202-19.706 13.177-41.616 12.002-57.935-3.106l-1.994-1.846-.963.963-.964.964 2.664 2.48c6.638 6.177 14.852 10.254 23.944 11.881 3.653.654 13.384.39 17.232-.468zm1.032-11.968c21.527-5.63 35.605-27.992 30.402-48.29-1.232-4.806-3.497-9.567-6.296-13.234-1.003-1.314-1.107-1.61-.801-2.281 1.907-4.186-3.245-9.06-7.872-7.447-.85.296-1.154.205-2.688-.806-3.19-2.101-12.43-6.054-12.946-5.538-.063.062-.206.69-.318 1.394l-.205 1.28 1.87.582c2.887.899 6.109 2.329 8.807 3.908l2.456 1.439-.456 1.093c-1.894 4.532 3.347 9.328 8.047 7.364l1.124-.47 1.706 2.63c7.087 10.924 7.76 22.887 1.945 34.63-10.369 20.941-34.985 28.224-53.989 15.972-7.134-4.6-13.213-13.75-14.818-22.3-.234-1.252-.66-1.433-2.32-.989-.907.243-.8 1.077.741 5.765 4.734 14.4 16.247 23.91 31.667 26.156 2.894.421 10.948-.074 13.944-.858zM267.2 111.251c0-.874-.288-3.862-.64-6.64-6.036-47.683-36.028-85.794-79.68-101.25l-4.32-1.53 42.48-.016 42.48-.016v55.52c0 30.536-.072 55.52-.16 55.52-.088 0-.16-.715-.16-1.588z" transform="translate(0 -1.799)"/><path style="fill:#c8acc9;stroke-width:.32" d="M112.56 242.227c.22-.09.58-.09.8 0 .22.088.04.161-.4.161s-.62-.073-.4-.161zm14.08 0c.22-.09.58-.09.8 0 .22.088.04.161-.4.161s-.62-.073-.4-.161zm4.5-.327c.231-.092.507-.081.613.025.107.106-.082.182-.42.168-.372-.015-.448-.091-.193-.193zm-25.6-.32c.231-.092.507-.081.613.025.107.106-.082.182-.42.168-.372-.015-.448-.091-.193-.193zm6.7-20.153c.22-.09.58-.09.8 0 .22.088.04.161-.4.161s-.62-.073-.4-.161zm14.74-.007c.231-.093.507-.082.613.025.107.106-.082.182-.42.168-.372-.016-.448-.091-.193-.193zm3.52-.32c.231-.093.507-.082.613.025.107.106-.082.182-.42.168-.372-.016-.448-.091-.193-.193zm88.38-6.342c.956-.968 1.81-1.76 1.898-1.76.088 0-.622.792-1.578 1.76-.956.968-1.81 1.76-1.898 1.76-.088 0 .622-.792 1.578-1.76zm8 1c0-.067.252-.32.56-.56.508-.399.519-.387.12.12-.417.533-.68.703-.68.44zm-26.56-4.16c0-.067.252-.32.56-.56.508-.399.519-.387.12.12-.417.533-.68.703-.68.44zm-161.96-1.08c-.399-.507-.388-.518.12-.12.533.418.703.68.44.68-.067 0-.32-.251-.56-.56zm196.2-2.44c0-.067.252-.319.56-.56.508-.398.519-.387.12.12-.417.534-.68.703-.68.44zm-202.92-4.28c-.399-.507-.388-.518.12-.12.533.418.703.68.44.68-.067 0-.32-.251-.56-.56zm81.086-.301c.311-.081.743-.076.96.012.217.087-.038.154-.566.147-.528-.007-.705-.078-.394-.16zm7.354 0c.308-.08.812-.08 1.12 0 .308.081.056.147-.56.147-.616 0-.868-.066-.56-.146zm4.644-6.085c.398-.076.974-.074 1.28.006.306.08-.02.143-.724.14-.704-.005-.954-.07-.556-.146zm5.12 0c.398-.076.974-.074 1.28.006.306.08-.02.143-.724.14-.704-.005-.954-.07-.556-.146zm-77.405-1.934c-.398-.507-.387-.519.121-.12.308.241.56.493.56.56 0 .263-.263.093-.68-.44zm-5.76-5.76c-.398-.507-.387-.519.121-.12.308.241.56.493.56.56 0 .263-.263.093-.68-.44zm71.021-6.058c.231-.092.507-.081.613.025.107.106-.082.182-.42.168-.372-.015-.448-.091-.193-.193zm7.04 0c.231-.092.507-.081.613.025.107.106-.082.182-.42.168-.372-.015-.448-.091-.193-.193zm-65.557-3.861-1.103-1.2 1.2 1.102c.66.607 1.2 1.147 1.2 1.2 0 .245-.27.014-1.297-1.102zm15.673-3.52-.776-.88.88.775c.822.725 1.027.985.776.985-.058 0-.454-.396-.88-.88zm-2.88-2.88-.776-.88.88.775c.822.725 1.027.985.776.985-.058 0-.454-.396-.88-.88zm73.01-2.187c.015-.373.09-.449.193-.193.092.23.08.507-.026.613-.106.106-.182-.083-.168-.42zm26.534-2.814c0-.067.252-.319.56-.56.508-.398.519-.387.12.12-.417.534-.68.703-.68.44zm-7.68-7.68c0-.067.252-.319.56-.56.508-.398.519-.387.12.12-.417.534-.68.703-.68.44zm-41.34-1.058c.231-.092.507-.081.613.025.107.106-.082.182-.42.168-.372-.015-.448-.091-.193-.193zm30.127-2.421c1.326-1.413 1.613-1.667 1.613-1.427 0 .051-.684.735-1.52 1.52l-1.52 1.427zm-2.547-1.3c0-.056.468-.524 1.04-1.04l1.04-.94-.94 1.04c-.876.969-1.14 1.187-1.14.94zm-58.577-7.18-1.103-1.2 1.2 1.102c1.117 1.027 1.347 1.298 1.103 1.298-.054 0-.594-.54-1.2-1.2zm54.737-.18c0-.056.468-.524 1.04-1.04l1.04-.94-.94 1.04c-.876.969-1.14 1.187-1.14.94zm-52.824-1.74-.776-.88.88.775c.822.725 1.027.985.776.985-.058 0-.454-.396-.88-.88zm-72.27-12.107c.015-.373.09-.449.193-.193.092.23.08.507-.026.613-.106.106-.182-.083-.168-.42zm218.24 0c.015-.373.09-.449.193-.193.092.23.08.507-.026.613-.106.106-.182-.083-.168-.42zm-239.04-.64c.015-.373.09-.449.193-.193.092.23.08.507-.026.613-.106.106-.182-.083-.168-.42zm266.56-.32c.015-.373.09-.449.193-.193.092.23.08.507-.026.613-.106.106-.182-.083-.168-.42zm-9.92-.32c.015-.373.09-.449.193-.193.092.23.08.507-.026.613-.106.106-.182-.083-.168-.42zm-38.4-.32c.015-.373.09-.449.193-.193.092.23.08.507-.026.613-.106.106-.182-.083-.168-.42zm-197.76-1.28c.015-.373.09-.449.193-.193.092.23.08.507-.026.613-.106.106-.182-.083-.168-.42zm218.88-.64c.015-.373.09-.449.193-.193.092.23.08.507-.026.613-.106.106-.182-.083-.168-.42zM.05 130.119c0-.44.072-.62.16-.4.09.22.09.58 0 .8-.088.22-.16.04-.16-.4zm218.88-.64c0-.44.072-.62.16-.4.09.22.09.58 0 .8-.088.22-.16.04-.16-.4zm48.331-.16c.007-.528.079-.706.16-.394.08.31.076.743-.012.96-.088.216-.154-.039-.148-.566zm-9.92-.32c.007-.528.079-.706.16-.394.08.311.076.743-.012.96-.088.216-.154-.039-.148-.566zm-79.077-.347c.016-.373.091-.449.194-.193.092.23.08.507-.026.613-.106.106-.182-.083-.168-.42zm-157.71-1.413c0-.616.065-.868.146-.56.08.308.08.812 0 1.12-.08.308-.147.056-.147-.56zm160.59.453c.016-.373.091-.449.194-.193.092.23.08.507-.026.613-.106.106-.182-.083-.168-.42zm-145.574-.773c0-.44.072-.62.16-.4.09.22.09.58 0 .8-.088.22-.16.04-.16-.4zm16-.32c0-.44.072-.62.16-.4.09.22.09.58 0 .8-.088.22-.16.04-.16-.4zm188.549-4.32c0-1.936.053-2.687.117-1.669a32.319 32.319 0 0 1-.001 3.52c-.065.918-.117.084-.116-1.851zm-83.59-.48c0-.44.073-.62.162-.4.089.22.089.58 0 .8-.089.22-.161.04-.161-.4zm2.932-2.56c0-1.144.059-1.612.13-1.04.07.572.07 1.508 0 2.08-.072.572-.13.104-.13-1.04zm21.709.32c0-.44.072-.62.16-.4.09.22.09.58 0 .8-.088.22-.16.04-.16-.4zm-129.6-1.28c0-.44.072-.62.16-.4.09.22.09.58 0 .8-.088.22-.16.04-.16-.4zm126.694.133c.016-.373.091-.449.194-.193.092.23.08.507-.026.613-.106.106-.182-.083-.168-.42zm-142.683-.613c.007-.528.079-.706.16-.394.08.31.076.743-.012.96-.088.216-.154-.039-.148-.566zm-15.04-.32c.007-.528.079-.706.16-.394.08.311.076.743-.012.96-.088.216-.154-.039-.148-.566zm166.338.359c0-.067.252-.319.56-.56.508-.398.519-.387.12.12-.417.534-.68.703-.68.44zm-30.375-1.026c.016-.373.091-.449.194-.193.092.23.08.507-.026.613-.106.106-.182-.083-.168-.42zm62.4-1.6c.016-.373.091-.449.194-.193.092.23.08.507-.026.613-.106.106-.182-.083-.168-.42zM.051 114.439c0-.44.072-.62.16-.4.09.22.09.58 0 .8-.088.22-.16.04-.16-.4zm257.291-.48c.007-.528.079-.706.16-.394.08.31.076.743-.012.96-.088.216-.154-.039-.148-.566zm-17.611-.48c0-.44.072-.62.16-.4.09.22.09.58 0 .8-.088.22-.16.04-.16-.4zm27.52 0c0-.44.072-.62.16-.4.09.22.09.58 0 .8-.088.22-.16.04-.16-.4zm-246.426-.507c.016-.373.091-.449.194-.193.092.23.08.507-.026.613-.106.106-.182-.083-.168-.42zm236.16-3.52c.016-.373.091-.449.194-.193.092.23.08.507-.026.613-.106.106-.182-.083-.168-.42zm9.92-.32c.016-.373.091-.449.194-.193.092.23.08.507-.026.613-.106.106-.182-.083-.168-.42zm-10.24-2.88c.016-.373.091-.449.194-.193.092.23.08.507-.026.613-.106.106-.182-.083-.168-.42zM56 68.238c0-.067.252-.319.56-.56.508-.398.519-.387.12.12-.417.534-.68.703-.68.44zm60.48-3.52c0-.067.252-.319.56-.56.508-.398.519-.387.12.12-.417.534-.68.703-.68.44zm76.12-10.04c-.399-.507-.388-.518.12-.12.308.241.56.493.56.56 0 .263-.263.094-.68-.44zm-143.96-1.78c0-.055.468-.523 1.04-1.04l1.04-.94-.94 1.04c-.876.97-1.14 1.188-1.14.94zm138.69-3.5-.61-.72.72.61c.677.573.866.83.61.83-.061 0-.385-.323-.72-.72zm-65.47-2.058c.231-.093.507-.081.613.025.107.106-.082.182-.42.168-.372-.015-.448-.09-.193-.193zm11.52 0c.231-.093.507-.081.613.025.107.106-.082.182-.42.168-.372-.015-.448-.09-.193-.193zm-23.36-6.08c.231-.093.507-.081.613.025.107.106-.082.182-.42.168-.372-.015-.448-.09-.193-.193zm13.12 0c.231-.093.507-.081.613.025.107.106-.082.182-.42.168-.372-.015-.448-.09-.193-.193zm83.243-2.261-1.103-1.2 1.2 1.102c1.117 1.027 1.347 1.298 1.103 1.298-.054 0-.594-.54-1.2-1.2zM35.04 37.319c.687-.704 1.322-1.28 1.41-1.28.088 0-.403.576-1.09 1.28-.687.704-1.322 1.28-1.41 1.28-.088 0 .403-.576 1.09-1.28zm168.143-1.52-1.103-1.2 1.2 1.102c1.117 1.027 1.347 1.298 1.103 1.298-.054 0-.594-.54-1.2-1.2zm27.997-4.64-.94-1.04 1.04.94c.572.516 1.04.984 1.04 1.04 0 .247-.264.029-1.14-.94zm-9.29 0-.61-.72.72.61c.396.334.72.658.72.72 0 .255-.258.066-.83-.61zm-6.08-6.08-.61-.72.72.61c.396.334.72.658.72.72 0 .255-.258.066-.83-.61zm-105.47-1.74c.231-.092.507-.08.613.026.107.107-.082.182-.42.168-.372-.015-.448-.09-.193-.193zm4.3-.321c.308-.08.812-.08 1.12 0 .308.08.056.146-.56.146-.616 0-.868-.066-.56-.146zm9.606-.001c.311-.081.743-.076.96.012.217.087-.038.154-.566.147-.528-.006-.705-.078-.394-.16zM106.82 2.86c.231-.093.507-.081.613.025.107.107-.082.182-.42.168-.372-.015-.448-.09-.193-.193zm25.92 0c.231-.093.507-.081.613.025.107.107-.082.182-.42.168-.372-.015-.448-.09-.193-.193zm-22.4-.32c.231-.093.507-.081.613.025.107.107-.082.182-.42.168-.372-.015-.448-.09-.193-.193zm18.88 0c.231-.093.507-.081.613.025.107.107-.082.182-.42.168-.372-.015-.448-.09-.193-.193Zm-13.296-.331c.487-.074 1.207-.072 1.6.004.394.076-.004.136-.884.134-.88-.002-1.202-.065-.716-.138zm6.876.004a4.56 4.56 0 0 1 1.44 0c.396.076.072.138-.72.138-.792 0-1.116-.062-.72-.138z" transform="translate(0 -1.799)"/><path style="fill:#f4a957;stroke-width:.32" d="M164.48 178.638c0-.067.252-.319.56-.56.508-.398.519-.387.12.12-.417.534-.68.703-.68.44zm1.92-1.6c0-.067.252-.319.56-.56.508-.398.519-.387.12.12-.417.534-.68.703-.68.44zm-2.88-.96c0-.067.252-.319.56-.56.508-.398.519-.387.12.12-.417.534-.68.703-.68.44zm7.84-3.72c1.4-1.407 2.617-2.56 2.705-2.56.088 0-.985 1.153-2.385 2.56-1.4 1.409-2.617 2.56-2.705 2.56-.088 0 .985-1.151 2.385-2.56zm-5.44 1.6c.319-.351.651-.64.74-.64.087 0-.101.289-.42.64-.319.353-.651.64-.74.64-.087 0 .101-.287.42-.64zm-53.52-2.46c.308-.08.812-.08 1.12 0 .308.08.056.146-.56.146-.616 0-.868-.066-.56-.146zm8.326-.001c.311-.081.743-.076.96.012.217.088-.038.154-.566.147-.528-.007-.705-.078-.394-.159zm-10.706-.317c.231-.093.507-.081.613.025.107.106-.082.182-.42.168-.372-.015-.448-.091-.193-.193zm13.76 0c.231-.093.507-.081.613.025.107.106-.082.182-.42.168-.372-.015-.448-.091-.193-.193zm45.66-.421c.319-.352.651-.64.74-.64.087 0-.101.288-.42.64-.319.352-.651.64-.74.64-.087 0 .101-.288.42-.64zm-56.714-1.822c.311-.081.743-.076.96.012.217.087-.038.154-.566.147-.528-.007-.705-.078-.394-.16zm8 0c.311-.081.743-.076.96.012.217.087-.038.154-.566.147-.528-.007-.705-.078-.394-.16zm-10.386-.317c.231-.092.507-.081.613.025.107.106-.082.182-.42.168-.372-.015-.448-.091-.193-.193zm13.12 0c.231-.092.507-.081.613.025.107.106-.082.182-.42.168-.372-.015-.448-.091-.193-.193zm52.06-.741c.319-.352.651-.64.74-.64.087 0-.101.288-.42.64-.319.352-.651.64-.74.64-.087 0 .101-.288.42-.64zm-3.04-.441c0-.067.252-.319.56-.56.508-.398.519-.387.12.12-.417.534-.68.703-.68.44zm4.16-.96c0-.067.252-.319.56-.56.508-.398.519-.387.12.12-.417.534-.68.703-.68.44zm-1.28-2.56c0-.067.252-.319.56-.56.508-.398.519-.387.12.12-.417.534-.68.703-.68.44zm-87.4-2.68c-.399-.507-.388-.518.12-.12.533.418.703.68.44.68-.067 0-.32-.251-.56-.56zm-2.38-2.08-.94-1.04 1.04.94c.572.517 1.04.985 1.04 1.04 0 .248-.264.03-1.14-.94zm3.34-.48c-.399-.507-.388-.518.12-.12.308.241.56.493.56.56 0 .263-.263.094-.68-.44zm60.2-1.84c.413-.44.824-.8.912-.8.088 0-.179.36-.592.8-.413.44-.824.8-.912.8-.088 0 .179-.36.592-.8zm-62.947-.534c-.898-.898-1.082-.965-1.594-.578-.554.419-.555.411-.016-.177.551-.6.589-.588 1.755.578.655.655 1.119 1.192 1.03 1.192-.088 0-.617-.457-1.175-1.015zm69.187-2.185c.319-.352.651-.64.74-.64.087 0-.101.288-.42.64-.319.352-.651.64-.74.64-.087 0 .101-.288.42-.64zm-2.72-.8c.413-.44.824-.8.912-.8.088 0-.179.36-.592.8-.413.44-.824.8-.912.8-.088 0 .179-.36.592-.8zm3.84-.601c0-.067.252-.319.56-.56.508-.398.519-.387.12.12-.417.534-.68.703-.68.44zm35.545-19.906c.016-.373.091-.449.194-.193.092.23.08.507-.026.613-.106.106-.182-.083-.168-.42zm-2.56-.32c.016-.373.091-.449.194-.193.092.23.08.507-.026.613-.106.106-.182-.083-.168-.42zm.346-2.053c0-.44.072-.62.16-.4.09.22.09.58 0 .8-.088.22-.16.04-.16-.4zm2.534.133c.016-.373.091-.449.194-.193.092.23.08.507-.026.613-.106.106-.182-.083-.168-.42zm.357-2.533c.007-.528.079-.706.16-.394.08.31.076.743-.012.96-.088.216-.154-.039-.148-.566zm-2.571-.16c0-.44.072-.62.16-.4.09.22.09.58 0 .8-.088.22-.16.04-.16-.4zm5.869-2.56c.319-.352.651-.64.74-.64.087 0-.101.288-.42.64-.319.352-.651.64-.74.64-.087 0 .101-.288.42-.64zm-27.63-.64c0-.44.073-.62.162-.4.089.22.089.58 0 .8-.089.22-.161.04-.161-.4zm-2.585-.187c.016-.373.091-.449.194-.193.092.23.08.507-.026.613-.106.106-.182-.083-.168-.42zm2.972-5.093c0-1.76.054-2.44.12-1.51.064.93.063 2.37-.003 3.2-.065.83-.118.07-.118-1.69zm-2.562-.16c0-1.672.054-2.356.12-1.52.066.836.066 2.204 0 3.04-.066.836-.12.152-.12-1.52zm29.775-1.68-.61-.72.72.61c.677.572.866.83.61.83-.061 0-.385-.324-.72-.72zm-30.16-3.76c0-.44.073-.62.162-.4.089.22.089.58 0 .8-.089.22-.161.04-.161-.4zm24.332-.16c.007-.528.079-.706.16-.394.08.31.076.743-.012.96-.088.216-.154-.039-.148-.566zm-21.797-.027c.016-.373.091-.449.194-.194.092.231.08.507-.026.614-.106.106-.182-.083-.168-.42zm24.346-.134c0-.44.072-.62.16-.4.09.22.09.58 0 .8-.088.22-.16.04-.16-.4zm-24.666-2.106c.016-.373.091-.449.194-.194.092.231.08.507-.026.614-.106.106-.182-.083-.168-.42zm21.76-.32c.016-.373.091-.449.194-.194.092.231.08.507-.026.614-.106.106-.182-.083-.168-.42zm2.56-.32c.016-.373.091-.449.194-.194.092.231.08.507-.026.614-.106.106-.182-.083-.168-.42zm-.32-1.92c.016-.373.091-.449.194-.194.092.231.08.507-.026.614-.106.106-.182-.083-.168-.42zM153.24 85.399c-.398-.508-.387-.52.121-.121.308.241.56.493.56.56 0 .263-.263.094-.68-.44zm2.56-.96c-.398-.508-.387-.52.121-.121.308.241.56.493.56.56 0 .263-.263.094-.68-.44zm-6.05-2.88-1.75-1.84 1.84 1.749c1.71 1.625 1.987 1.93 1.75 1.93-.05 0-.879-.827-1.84-1.84zm4.147.64-.776-.88.88.775c.822.725 1.027.985.776.985-.058 0-.454-.396-.88-.88zm-7.697-3.84c-.398-.508-.387-.52.121-.121.308.241.56.493.56.56 0 .263-.263.094-.68-.44zm3.217-.64-.776-.88.88.775c.484.427.88.823.88.88 0 .251-.26.047-.984-.775zm25.263-1.28c-.398-.508-.387-.52.121-.121.533.418.703.68.44.68-.067 0-.32-.251-.56-.56zm-27.52-.64c-.398-.508-.387-.52.121-.121.308.241.56.493.56.56 0 .263-.263.094-.68-.44zm26.09-1.12-.609-.72.72.61c.677.572.866.83.61.83-.061 0-.385-.324-.72-.72zm2.71-.8c-.398-.508-.387-.52.121-.121.533.418.703.68.44.68-.067 0-.32-.251-.56-.56zm-58.863-1.92-.776-.88.88.775c.822.725 1.027.985.776.985-.058 0-.454-.396-.88-.88zm8.504.24c.319-.352.651-.64.74-.64.087 0-.101.288-.42.64-.319.352-.651.64-.74.64-.087 0 .101-.288.42-.64zm43.68-1.76c-1.311-1.32-2.312-2.4-2.224-2.4.088 0 1.233 1.08 2.544 2.4 1.311 1.32 2.312 2.4 2.224 2.4-.088 0-1.233-1.08-2.544-2.4zm4.3.72-.94-1.04 1.04.94c.572.516 1.04.984 1.04 1.04 0 .247-.264.029-1.14-.94zm-58.38-1.84c-.41-.266-.399-.311.08-.316.308-.002.56.14.56.316 0 .39-.036.39-.64 0zm-.38-2.78c.231-.092.507-.08.613.026.107.106-.082.182-.42.168-.372-.015-.448-.091-.193-.193zm49.94-.34c-.399-.508-.388-.52.12-.121.308.241.56.493.56.56 0 .263-.263.094-.68-.44zm3.536-.32-.776-.88.88.775c.484.427.88.823.88.88 0 .251-.26.047-.984-.775zm-2.577-2.24c-.398-.508-.387-.52.121-.121.308.241.56.493.56.56 0 .263-.263.094-.68-.44zm-1.6-1.28c-.398-.508-.387-.52.121-.121.308.241.56.493.56.56 0 .263-.263.094-.68-.44z" transform="translate(0 -1.799)"/><path style="fill:#af8cb6;stroke-width:.32" d="M114 242.218c.308-.08.812-.08 1.12 0 .308.08.056.146-.56.146-.616 0-.868-.066-.56-.146zm11.206-.001c.311-.081.743-.076.96.012.217.088-.038.154-.566.147-.528-.007-.705-.078-.394-.159zm-15.826-.317c.231-.093.507-.081.613.025.107.106-.082.182-.42.168-.372-.015-.448-.091-.193-.193zm20.8 0c.231-.093.507-.081.613.025.107.106-.082.182-.42.168-.372-.015-.448-.091-.193-.193zm52.22-1.187c0-.07.223-.212.497-.317.284-.109.413-.055.3.126-.187.304-.797.45-.797.19zm-64.228-18.991a32.319 32.319 0 0 1 3.52 0c.917.065.084.117-1.852.116-1.936 0-2.687-.053-1.668-.117zm-6.872-.302c.231-.092.507-.081.613.025.107.106-.082.182-.42.168-.372-.015-.448-.091-.193-.193zm16.64 0c.231-.092.507-.081.613.025.107.106-.082.182-.42.168-.372-.015-.448-.091-.193-.193zm88.38-4.101c.413-.44.824-.8.912-.8.088 0-.179.36-.592.8-.413.44-.824.8-.912.8-.088 0 .179-.36.592-.8zm12-3.04c.319-.352.651-.64.74-.64.087 0-.101.288-.42.64-.319.352-.651.64-.74.64-.087 0 .101-.288.42-.64zm-7.04-1.92c.319-.352.651-.64.74-.64.087 0-.101.288-.42.64-.319.352-.651.64-.74.64-.087 0 .101-.288.42-.64zm-20-1.721c0-.067.252-.319.56-.56.508-.398.519-.387.12.12-.417.534-.68.703-.68.44zm-164.34-1.56-.94-1.04 1.04.94c.572.517 1.04.985 1.04 1.04 0 .248-.264.03-1.14-.94zm196.66-.04c0-.067.252-.319.56-.56.508-.398.519-.387.12.12-.417.534-.68.703-.68.44zm-200.5-3.8-.94-1.04 1.04.94c.572.517 1.04.985 1.04 1.04 0 .248-.264.03-1.14-.94zm174.74-1.2c.319-.351.651-.64.74-.64.087 0-.101.289-.42.64-.319.353-.651.64-.74.64-.087 0 .101-.287.42-.64zm-17.76-11.36c1.134-1.143 2.134-2.08 2.222-2.08.088 0-.768.937-1.902 2.08-1.134 1.145-2.134 2.08-2.222 2.08-.088 0 .768-.935 1.902-2.08zm-144.36-3.92c-.399-.507-.388-.518.12-.12.533.418.703.68.44.68-.067 0-.32-.251-.56-.56zm73.086-5.101c.311-.081.743-.076.96.012.217.087-.038.154-.566.147-.528-.007-.705-.078-.394-.16zm4.48 0c.311-.081.743-.076.96.012.217.087-.038.154-.566.147-.528-.007-.705-.078-.394-.16zm-2.566-2.568a7.07 7.07 0 0 1 1.76 0c.484.074.088.134-.88.134s-1.364-.06-.88-.134zm44.72-18.131c0-.067.252-.319.56-.56.508-.398.519-.387.12.12-.417.534-.68.703-.68.44zm-49.66-3.298c.231-.092.507-.081.613.025.107.106-.082.182-.42.168-.372-.015-.448-.091-.193-.193zm5.76 0c.231-.092.507-.081.613.025.107.106-.082.182-.42.168-.372-.015-.448-.091-.193-.193zm-3.7-2.575c.66-.069 1.74-.069 2.4 0 .66.07.12.126-1.2.126-1.32 0-1.86-.057-1.2-.126zm27.107-11.046c1.326-1.413 1.613-1.667 1.613-1.427 0 .051-.684.735-1.52 1.52l-1.52 1.427zm121.958-13.227c.016-.373.091-.449.194-.193.092.23.08.507-.026.613-.106.106-.182-.083-.168-.42zm-48-2.24c.016-.373.091-.449.194-.193.092.23.08.507-.026.613-.106.106-.182-.083-.168-.42zm20.826-.453c0-.44.072-.62.16-.4.09.22.09.58 0 .8-.088.22-.16.04-.16-.4zm17.574.133c.016-.373.091-.449.194-.193.092.23.08.507-.026.613-.106.106-.182-.083-.168-.42zM.051 128.839c0-.44.072-.62.16-.4.09.22.09.58 0 .8-.088.22-.16.04-.16-.4zm20.454-.187c.016-.373.091-.449.194-.193.092.23.08.507-.026.613-.106.106-.182-.083-.168-.42zm246.757-.933c.007-.528.079-.706.16-.394.08.31.076.743-.012.96-.088.216-.154-.039-.148-.566zm-86.08-1.28c.007-.528.079-.706.16-.394.08.31.076.743-.012.96-.088.216-.154-.039-.148-.566zm-2.517-2.88c.001-1.232.06-1.697.129-1.033.069.664.068 1.672-.003 2.24-.071.568-.128.025-.126-1.207zm40.653-1.12c0-1.848.053-2.604.118-1.68.065.924.065 2.436 0 3.36-.065.924-.118.168-.118-1.68zm38.378-.96c0-.968.06-1.364.133-.88a7.07 7.07 0 0 1 0 1.76c-.073.484-.133.088-.133-.88zm-76.514-.48c.007-.528.079-.706.16-.394.08.31.076.743-.012.96-.088.216-.154-.039-.148-.566zm-160.651-4.96c0-.44.072-.62.16-.4.09.22.09.58 0 .8-.088.22-.16.04-.16-.4zm-20.48-.32c0-.44.072-.62.16-.4.09.22.09.58 0 .8-.088.22-.16.04-.16-.4zm156.454.133c.016-.373.091-.449.194-.193.092.23.08.507-.026.613-.106.106-.182-.083-.168-.42zm110.757-.933c.007-.528.079-.706.16-.394.08.31.076.743-.012.96-.088.216-.154-.039-.148-.566zm-27.531-.16c0-.44.072-.62.16-.4.09.22.09.58 0 .8-.088.22-.16.04-.16-.4zm-20.826-.507c.016-.373.091-.449.194-.193.092.23.08.507-.026.613-.106.106-.182-.083-.168-.42zm38.426-1.733c0-.44.072-.62.16-.4.09.22.09.58 0 .8-.088.22-.16.04-.16-.4zM.345 111.372c.016-.373.091-.449.194-.193.092.23.08.507-.026.613-.106.106-.182-.083-.168-.42zm266.56-1.28c.016-.373.091-.449.194-.193.092.23.08.507-.026.613-.106.106-.182-.083-.168-.42zM139.582 92.839c.007-.528.079-.706.16-.394.08.31.076.743-.012.96-.088.216-.154-.038-.148-.566zM72.64 70.499c0-.056.468-.524 1.04-1.04l1.04-.94-.94 1.04c-.876.969-1.14 1.187-1.14.94zm-15.68-3.221c0-.067.252-.319.56-.56.508-.398.519-.387.12.12-.417.534-.68.703-.68.44zm4.32-4.36c.319-.351.651-.64.74-.64.087 0-.101.289-.42.64-.319.353-.651.64-.74.64-.087 0 .101-.287.42-.64zm132.28-7.28c-.399-.507-.388-.518.12-.12.533.418.703.68.44.68-.067 0-.32-.251-.56-.56zm-145.88-1.84c.413-.44.824-.8.912-.8.088 0-.179.36-.592.8-.413.44-.824.8-.912.8-.088 0 .179-.36.592-.8zm3.52-3.52c.413-.44.824-.8.912-.8.088 0-.179.36-.592.8-.413.44-.824.8-.912.8-.088 0 .179-.36.592-.8zm-20.8-7.96c0-.067.252-.319.56-.56.508-.398.519-.387.12.12-.417.534-.68.703-.68.44zm174.36-4.92c-.399-.507-.388-.518.12-.12.308.241.56.493.56.56 0 .263-.263.094-.68-.44zm22.08-10.24c-.399-.507-.388-.518.12-.12.533.418.703.68.44.68-.067 0-.32-.251-.56-.56zm-12.16-3.2c-.399-.507-.388-.518.12-.12.533.418.703.68.44.68-.067 0-.32-.251-.56-.56zm-84.82-.618c.231-.093.507-.081.613.025.107.107-.082.182-.42.168-.372-.015-.448-.09-.193-.193zm-16.32-.32c.231-.093.507-.081.613.025.107.107-.082.182-.42.168-.372-.015-.448-.09-.193-.193zm12.14.007c.22-.09.58-.09.8 0 .22.088.04.161-.4.161s-.62-.073-.4-.161zM111.3 2.54c.231-.093.507-.081.613.025.107.107-.082.182-.42.168-.372-.015-.448-.09-.193-.193Zm16.96 0c.231-.093.507-.081.613.025.107.107-.082.182-.42.168-.372-.015-.448-.09-.193-.193Zm-9.307-.332c.568-.071 1.576-.072 2.24-.003.664.07.199.127-1.033.129-1.232 0-1.775-.056-1.207-.126z" transform="translate(0 -1.799)"/><path style="fill:#925a96;stroke-width:.32" d="M116.244 242.209c.487-.074 1.207-.072 1.6.004.394.076-.004.136-.884.134-.88-.003-1.202-.065-.716-.138zm6.076 0a7.07 7.07 0 0 1 1.76 0c.484.073.088.134-.88.134s-1.364-.06-.88-.134zm-11.98-.31c.231-.092.507-.08.613.026.107.106-.082.182-.42.168-.372-.015-.448-.091-.193-.193zm18.88 0c.231-.092.507-.08.613.026.107.106-.082.182-.42.168-.372-.015-.448-.091-.193-.193zm-14.26-20.161c.308-.08.812-.08 1.12 0 .308.08.056.146-.56.146-.616 0-.868-.066-.56-.146zm8.64 0c.308-.08.812-.08 1.12 0 .308.08.056.146-.56.146-.616 0-.868-.066-.56-.146zm91.12-2.78c0-.067.252-.319.56-.56.508-.398.519-.387.12.12-.417.534-.68.703-.68.44zm16.48-7.56c1.223-1.231 2.295-2.24 2.383-2.24.088 0-.84 1.009-2.063 2.24-1.223 1.233-2.295 2.24-2.383 2.24-.088 0 .84-1.007 2.063-2.24zm-8.64-.32c.319-.351.651-.64.74-.64.087 0-.101.289-.42.64-.319.353-.651.64-.74.64-.087 0 .101-.287.42-.64zm-17.92-3.84c1.4-1.407 2.617-2.56 2.705-2.56.088 0-.985 1.153-2.385 2.56-1.4 1.409-2.617 2.56-2.705 2.56-.088 0 .985-1.151 2.385-2.56zm-169.62-.08-.94-1.04 1.04.94c.572.517 1.04.985 1.04 1.04 0 .248-.264.03-1.14-.94zm80.26-3.675a23.397 23.397 0 0 1 3.04 0c.836.066.152.12-1.52.12s-2.356-.054-1.52-.12zm7.84-6.056c.22-.09.58-.09.8 0 .22.088.04.161-.4.161s-.62-.073-.4-.161zm8.64 0c.22-.09.58-.09.8 0 .22.088.04.161-.4.161s-.62-.073-.4-.161zm55.44-1.83c0-.066.252-.318.56-.56.508-.397.519-.386.12.122-.417.533-.68.702-.68.439zM49.41 192.76l-.61-.72.72.61c.396.334.72.658.72.72 0 .255-.258.066-.83-.61zm142.91-2.281c0-.067.252-.319.56-.56.508-.398.519-.387.12.12-.417.534-.68.703-.68.44zm-71.596-6.83c.487-.073 1.207-.07 1.6.005.394.076-.004.136-.884.134-.88-.003-1.202-.065-.716-.138zm-1.764-2.541c.22-.09.58-.09.8 0 .22.088.04.161-.4.161s-.62-.073-.4-.161zm4.48 0c.22-.09.58-.09.8 0 .22.088.04.161-.4.161s-.62-.073-.4-.161zm23.28-13.548c.319-.352.651-.64.74-.64.087 0-.101.288-.42.64-.319.352-.651.64-.74.64-.087 0 .101-.288.42-.64zm15.2-1.12c.413-.44.824-.8.912-.8.088 0-.179.36-.592.8-.413.44-.824.8-.912.8-.088 0 .179-.36.592-.8zm-.48-3.04c.867-.88 1.648-1.6 1.736-1.6.088 0-.55.72-1.416 1.6-.867.88-1.648 1.6-1.736 1.6-.088 0 .55-.72 1.416-1.6zm3.2.32c.319-.352.651-.64.74-.64.087 0-.101.288-.42.64-.319.352-.651.64-.74.64-.087 0 .101-.288.42-.64zm-46.952-4.075c.753-.068 1.905-.067 2.56.002.656.068.04.124-1.368.123-1.408-.001-1.944-.058-1.192-.125zM116.1 157.1c.231-.092.507-.081.613.025.107.106-.082.182-.42.168-.372-.015-.448-.091-.193-.193zm5.44 0c.231-.092.507-.081.613.025.107.106-.082.182-.42.168-.372-.015-.448-.091-.193-.193zM.345 132.492c.016-.373.091-.449.194-.193.092.23.08.507-.026.613-.106.106-.182-.083-.168-.42zm266.56-.64c.016-.373.091-.449.194-.193.092.23.08.507-.026.613-.106.106-.182-.083-.168-.42zm-9.6-.64c.016-.373.091-.449.194-.193.092.23.08.507-.026.613-.106.106-.182-.083-.168-.42zm-236.8-1.6c.016-.373.091-.449.194-.193.092.23.08.507-.026.613-.106.106-.182-.083-.168-.42zm160.32 0c.016-.373.091-.449.194-.193.092.23.08.507-.026.613-.106.106-.182-.083-.168-.42zm58.917-.933c.007-.528.079-.706.16-.394.08.311.076.743-.012.96-.088.216-.154-.039-.148-.566zM.074 127.239c0-.616.066-.868.147-.56.08.308.08.812 0 1.12-.08.308-.147.056-.147-.56zm51.471.453c.016-.373.091-.449.194-.193.092.23.08.507-.026.613-.106.106-.182-.083-.168-.42zm127.077-1.253c.007-.528.079-.706.16-.394.08.311.076.743-.012.96-.088.216-.154-.039-.148-.566zm40.64 0c.007-.528.079-.706.16-.394.08.311.076.743-.012.96-.088.216-.154-.039-.148-.566zm48.019-.64c.004-.704.069-.955.145-.557.077.398.074.974-.006 1.28-.08.306-.142-.02-.139-.723zm-9.585-1.12c0-.968.06-1.364.133-.88a7.07 7.07 0 0 1 0 1.76c-.073.484-.133.088-.133-.88zm-222.084-.16c.002-.88.064-1.203.138-.716.073.486.071 1.206-.005 1.6-.076.393-.136-.004-.134-.884zm145.61-.8c0-1.144.059-1.612.13-1.04.07.572.07 1.508 0 2.08-.072.572-.13.104-.13-1.04zm-145.606-3.52c0-.968.06-1.364.133-.88a7.069 7.069 0 0 1 0 1.76c-.073.484-.133.088-.133-.88zm142.995.64c0-.44.072-.62.16-.4.09.22.09.58 0 .8-.088.22-.16.04-.16-.4zm79.085-2.56c0-.968.06-1.364.133-.88a7.07 7.07 0 0 1 0 1.76c-.073.484-.133.088-.133-.88zm-38.422 0c0-.616.066-.868.147-.56.08.308.08.812 0 1.12-.08.308-.147.056-.147-.56zm-219.193-.8c.003-.704.069-.955.145-.557.077.398.074.974-.006 1.28-.08.306-.143-.02-.14-.723zm267.206-.48c0-.792.063-1.116.139-.72a4.558 4.558 0 0 1 0 1.44c-.076.396-.139.072-.139-.72zm-215.742-.187c.016-.373.091-.449.194-.193.092.23.08.507-.026.613-.106.106-.182-.083-.168-.42zm188.186-.773c0-.44.072-.62.16-.4.09.22.09.58 0 .8-.088.22-.16.04-.16-.4zm-219.226-1.147c.016-.373.091-.449.194-.193.092.23.08.507-.026.613-.106.106-.182-.083-.168-.42zm15.36-.32c.016-.373.091-.449.194-.193.092.23.08.507-.026.613-.106.106-.182-.083-.168-.42zm183.04-1.28c.016-.373.091-.449.194-.193.092.23.08.507-.026.613-.106.106-.182-.083-.168-.42zm20.48-1.92c.016-.373.091-.449.194-.193.092.23.08.507-.026.613-.106.106-.182-.083-.168-.42zm17.92 0c.016-.373.091-.449.194-.193.092.23.08.507-.026.613-.106.106-.182-.083-.168-.42zm9.6-.32c.016-.373.091-.449.194-.193.092.23.08.507-.026.613-.106.106-.182-.083-.168-.42zm-9.92-3.2c.016-.373.091-.449.194-.193.092.23.08.507-.026.613-.106.106-.182-.083-.168-.42zM145.54 98.54c.231-.093.507-.081.613.025.107.106-.082.182-.42.168-.372-.015-.448-.09-.193-.193zm-4.29-1.781-.61-.72.72.61c.677.572.866.83.61.83-.061 0-.385-.324-.72-.72zm10.135-3.627c.016-.373.091-.449.194-.193.092.23.08.507-.026.613-.106.106-.182-.083-.168-.42zm-6.185-5.785c.22-.09.58-.09.8 0 .22.088.04.161-.4.161s-.62-.073-.4-.161zm-99.12-31.91c0-.066.252-.318.56-.56.508-.397.519-.386.12.122-.417.533-.68.702-.68.439zm6.08-6.08c0-.066.252-.318.56-.56.508-.397.519-.386.12.122-.417.533-.68.702-.68.439zm74.806-2.35c.575-.072 1.439-.07 1.92.003.48.073.01.131-1.046.13-1.056-.003-1.45-.062-.874-.133zm-95.606-5.65c0-.066.252-.318.56-.56.508-.397.519-.386.12.122-.417.533-.68.702-.68.439zm79.94-.097c.231-.093.507-.081.613.025.107.106-.082.182-.42.168-.372-.015-.448-.091-.193-.193zm10.54.007c.22-.09.58-.09.8 0 .22.088.04.161-.4.161s-.62-.073-.4-.161zm112.53-6.588-.61-.72.72.61c.396.334.72.658.72.72 0 .255-.258.066-.83-.61zm-195.81-.56c.319-.352.651-.64.74-.64.087 0-.101.288-.42.64-.319.352-.651.64-.74.64-.087 0 .101-.288.42-.64zm161.72-.88c-.399-.508-.388-.52.12-.121.308.241.56.493.56.56 0 .263-.263.094-.68-.44zm23.36-.32c-.399-.508-.388-.52.12-.121.308.241.56.493.56.56 0 .263-.263.094-.68-.44zm4.16-4.8c-.399-.508-.388-.52.12-.121.308.241.56.493.56.56 0 .263-.263.094-.68-.44zm-115.56-5.092c.22-.09.58-.09.8 0 .22.088.04.161-.4.161s-.62-.073-.4-.161zm14.74-.007c.231-.093.507-.081.613.025.107.106-.082.182-.42.168-.372-.015-.448-.091-.193-.193zM112.24 2.547c.22-.09.58-.09.8 0 .22.088.04.161-.4.161s-.62-.073-.4-.161zm14.72 0c.22-.09.58-.09.8 0 .22.088.04.161-.4.161s-.62-.073-.4-.161zm56.08-.108c-.288-.187-.328-.313-.099-.316.21-.002.47.14.579.316.246.397.135.397-.48 0z" transform="translate(0 -1.799)"/><path style="fill:#ef8006;stroke-width:.32" d="M139.876 190.243c-.45-1.29-.475-1.269 2.844-2.393 3.86-1.308 11.415-5.124 15.36-7.758 16.478-11.002 27.57-27.398 31.314-46.293.978-4.934 1.169-7.2.605-7.2-.254 0-1.045-.422-1.755-.937-3.388-2.454-2.747-7.979 1.085-9.365l1.152-.416-.2-2.355c-1.026-12.145-7.023-26.532-15.56-37.327-4.191-5.302-12.268-12.512-17.921-15.998-.792-.489-1.49-.931-1.551-.983-.154-.132 1.005-2.06 1.238-2.06.103 0 1.636.982 3.405 2.182 18.741 12.714 30.55 32.329 32.916 54.67.183 1.732.302 1.997.974 2.166 1.204.302 2.9 1.983 3.49 3.457 1.091 2.726-.278 5.716-3.187 6.963l-1.296.556-.41 3.448c-.225 1.897-.898 5.357-1.496 7.69-5.996 23.392-22.986 42.347-46.115 51.447-4.412 1.735-4.462 1.74-4.892.506zm-28.001-18.842c-7.357-.93-14.404-3.608-20.45-7.771-2.99-2.06-7.905-6.296-7.905-6.815 0-.21.363-.62.806-.911.799-.523.83-.507 3.44 1.768 6.125 5.34 12.197 8.558 19.735 10.461 4.429 1.118 13.76 1.256 18.259.269 9.128-2.002 18.726-6.914 24.752-12.668 7.103-6.783 12.874-17.667 14.99-28.272 4.513-22.621-11.21-49.65-33.15-56.986-4.106-1.373-4.908-1.42-5.326-.317-.751 1.981-3.211 3.625-5.426 3.625-2.291 0-5.136-2.024-5.635-4.01-.107-.427-.287-.772-.4-.769-.714.025-5.963 1.342-7.535 1.892-1.04.364-1.926.662-1.969.662-.247 0-.748-2.077-.545-2.26.447-.405 4.545-1.631 7.337-2.196 2.61-.529 2.8-.625 3.596-1.811 2.387-3.56 8.102-3.425 10.075.238.55 1.022.788 1.144 3.303 1.695 16.23 3.559 31.657 19.499 36.882 38.108 4.085 14.545 1.454 30.343-7.219 43.346-5.346 8.016-11.479 13.37-20.155 17.597-8.614 4.196-19.192 6.17-27.46 5.125z" transform="translate(0 -1.799)"/><path style="fill:#704d8e;stroke-width:.32" d="M110.02 203.18c.231-.092.507-.081.613.025.107.106-.082.182-.42.168-.372-.015-.448-.091-.193-.193zm13.12 0c.231-.092.507-.081.613.025.107.106-.082.182-.42.168-.372-.015-.448-.091-.193-.193zm-16.32-.32c.231-.092.507-.081.613.025.107.106-.082.182-.42.168-.372-.015-.448-.091-.193-.193zm15.02-5.433c.22-.09.58-.09.8 0 .22.088.04.161-.4.161s-.62-.073-.4-.161zm11.22-.007c.231-.093.507-.082.613.025.107.106-.082.182-.42.168-.372-.016-.448-.091-.193-.193zm-71.02-15.061c-.399-.508-.388-.52.12-.121.308.241.56.493.56.56 0 .263-.263.094-.68-.44zm-5.44-5.44c-.399-.508-.388-.52.12-.121.308.241.56.493.56.56 0 .263-.263.094-.68-.44zm-20.735-47.627c.016-.373.091-.449.194-.193.092.23.08.507-.026.613-.106.106-.182-.083-.168-.42zm15.68-.64c.016-.373.091-.449.194-.193.092.23.08.507-.026.613-.106.106-.182-.083-.168-.42zm-.27-6.213c0-.616.065-.868.146-.56.08.308.08.812 0 1.12-.08.308-.147.056-.147-.56zm-15.704 0c0-.44.072-.62.16-.4.09.22.09.58 0 .8-.088.22-.16.04-.16-.4zm15.974-6.587c.016-.373.091-.449.194-.193.092.23.08.507-.026.613-.106.106-.182-.083-.168-.42zm-15.68-.32c.016-.373.091-.449.194-.193.092.23.08.507-.026.613-.106.106-.182-.083-.168-.42zM68.48 74.958c0-.067.252-.319.56-.56.508-.398.519-.387.12.12-.417.534-.68.703-.68.44zm1.92-2.22c0-.055.468-.523 1.04-1.04l1.04-.94-.94 1.04c-.876.97-1.14 1.188-1.14.94zm-14.88-3.74c.319-.351.651-.64.74-.64.087 0-.101.289-.42.64-.319.353-.651.64-.74.64-.087 0 .101-.287.42-.64zm19.04-.42c0-.055.468-.523 1.04-1.04l1.04-.94-.94 1.04c-.876.97-1.14 1.188-1.14.94zm-15.2-3.74c.687-.703 1.322-1.28 1.41-1.28.088 0-.403.577-1.09 1.28-.687.705-1.322 1.28-1.41 1.28-.088 0 .403-.575 1.09-1.28zm3.68-3.32c0-.067.252-.319.56-.56.508-.398.519-.387.12.12-.417.534-.68.703-.68.44zm61.364-14.506c.398-.076.974-.073 1.28.007.306.08-.02.142-.724.139-.704-.004-.954-.07-.556-.146zm5.76 0c.398-.076.974-.073 1.28.007.306.08-.02.142-.724.139-.704-.004-.954-.07-.556-.146zM105.54 41.9c.231-.093.507-.081.613.025.107.106-.082.182-.42.168-.372-.015-.448-.091-.193-.193zm6.866-.643c.311-.081.743-.076.96.012.217.087-.038.154-.566.147-.528-.006-.705-.078-.394-.16zm8 0c.311-.081.743-.076.96.012.217.087-.038.154-.566.147-.528-.006-.705-.078-.394-.16z" transform="translate(0 -1.799)"/><path style="fill:#6e2272;stroke-width:.32" d="M116.16 242.22c-56.116-1.7-103.864-42.74-114.044-98.021-4.728-25.673-1.002-52.18 10.588-75.327C30.956 32.42 65.484 8.17 106.24 3.178c6.518-.798 21.38-.792 27.68.012 36.007 4.592 66.339 23.27 86.085 53.009 28.814 43.395 26.224 100.225-6.44 141.28-3.727 4.685-13.747 14.672-18.525 18.465-22.659 17.985-50.157 27.145-78.88 26.275zm16.16-21.053c20.722-2.762 39.097-11.22 54.4-25.037 32.831-29.643 42.098-77.602 22.688-117.418-12.808-26.273-37.513-46.2-65.814-53.083-16.624-4.043-35.242-3.641-51.488 1.11C67.19 34.027 46.44 50.447 33.28 73.292c-6.732 11.688-11.2 25.856-12.514 39.673-.544 5.724-.2 18.802.636 24.195 6.126 39.509 35.027 71.596 73.488 81.587 5.584 1.45 9.793 2.136 18.55 3.021 2.776.28 15.246-.116 18.88-.6zm-22.4-17.956c-.528-.074-2.688-.363-4.8-.643-26.15-3.473-49.431-20.57-61.28-45.006-5.868-12.104-8.292-23.65-7.907-37.673.339-12.327 2.803-22.455 8.062-33.13 4.25-8.63 8.815-14.96 15.815-21.933 23.666-23.573 59.252-30.137 90.01-16.601 3.935 1.732 12.74 6.706 12.74 7.197 0 .08-1.027-.373-2.282-1.005-20.095-10.12-45.259-9.855-66.518.698-33.774 16.766-50.248 55.148-38.682 90.12 9.388 28.385 34.962 48.826 65.183 52.099 5.047.546 14.79.239 19.66-.621 7.478-1.32 13.465-3.16 19.338-5.942 1.64-.776 2.981-1.363 2.981-1.303 0 .326-5.753 3.72-9.243 5.453-8.199 4.072-14.848 6.178-24.344 7.71-2.908.468-16.503.89-18.733.58zm4.16-20.143c-5.232-.967-15.542-5.081-16.05-6.404-.087-.228.079-.776.368-1.218l.528-.805 3.257 1.721c11.205 5.92 23.834 6.455 36.93 1.565 2.563-.958 6.631-2.785 7.07-3.177.058-.05-.144-.793-.449-1.65-.733-2.064-.429-3.613 1.025-5.223 2.06-2.28 5.34-2.554 8.015-.669l1.445 1.02 1.49-1.205c10.312-8.328 18.024-21.375 20.396-34.504.7-3.868.795-13.073.177-16.96-1.71-10.749-6.808-22.871-13.229-31.455l-1.028-1.374.934-.745.934-.744 1.014 1.328c3.901 5.109 8.187 13.24 10.558 20.03 8.362 23.947 2.358 47.537-16.485 64.767-1.31 1.197-2.713 2.395-3.12 2.661-.407.267-.74.793-.742 1.168-.01 3.797-3.44 6.454-7.27 5.633-1.49-.32-1.665-.276-4.897 1.248-4.066 1.916-9.07 3.62-13.313 4.533-4.215.907-13.782 1.157-17.558.46zm-2.792-24.124c-11.829-2.575-20.65-9.067-26.122-19.225-1.472-2.734-3.546-8.66-3.654-10.443-.067-1.112 0-1.211.972-1.417.944-.2 1.06-.141 1.221.62 3.115 14.728 13.314 24.85 28.455 28.24 3.197.715 11.252.55 14.669-.299 15.077-3.749 27.257-16.81 29.66-31.807.63-3.933.26-10.638-.782-14.174-1.672-5.676-5.74-12.882-7.045-12.482-2.76.844-5.183.527-6.797-.89-1.888-1.657-2.49-3.921-1.668-6.278.308-.882.274-1.087-.24-1.47-1.373-1.024-6.88-3.693-9.546-4.626-1.577-.553-2.91-1.047-2.961-1.098-.183-.182.618-2.116.876-2.116 1.46 0 9.1 3.4 12.455 5.544 1.406.898 1.889 1.057 2.501.824 2.512-.955 5.984.195 7.283 2.41.82 1.4 1.089 4.022.506 4.942-.193.305.27 1.243 1.498 3.04 8.113 11.872 8.915 25.713 2.24 38.706-5.43 10.571-14.933 18.35-26.329 21.553-4.037 1.134-12.967 1.365-17.192.446zm76.072 79.407c63.8-34.19 88.656-111.812 56.42-176.193-6.471-12.926-13.92-23.164-24.724-33.987-9.983-10-18.43-16.357-30.896-23.252-4.507-2.493-4.3-2.494 2.24-.011 40.176 15.251 68.89 51.923 75.487 96.41 2.41 16.253 1.775 34.286-1.752 49.742-8.77 38.433-33.807 69.43-68.43 84.723-2.908 1.284-9.56 3.833-11.065 4.239-.44.119.784-.633 2.72-1.67z" transform="translate(0 -1.799)"/></svg>